<svg xmlns="http://www.w3.org/2000/svg" viewBox="0 0 106.8 89.5"><path fill="#FFF" d="M26.7 39h2.9c21.1 0 20.2 24.8 0 24.8H15.8V25.7h26v7.9H26.7V39zm0 8.2v8.3h2.9c6.1 0 6.4-8.3 0-8.3h-2.9z"/><path fill="#FF5B00" d="M74.9 25.7v8.4h-10v29.7H54V34.1h-9.9v-8.4z"/><path fill="#FFF" d="M88.4 39h2.9c21.1 0 20.2 24.8 0 24.8H77.5V25.7h26v7.9H88.4V39zm0 8.2v8.3h2.9c6.1 0 6.4-8.3 0-8.3h-2.9zm13.3-27h-26L60.3 0h26.3z"/><path fill="#FF5B00" d="M71.8 20.2h-26L30.4 0h26.3z"/><path fill="#FFF" d="M41.4 20.2h-26L0 0h26.3zM102 69.3H75.9L60.5 89.5h26.3z"/><path fill="#FF5B00" d="M72.1 69.3H46L30.6 89.5h26.3z"/><path fill="#FFF" d="M41.7 69.3h-26L.2 89.5h26.4z"/></svg>