<?xml version="1.0" encoding="utf-8"?>
<!-- Generator: Adobe Illustrator 18.0.0, SVG Export Plug-In . SVG Version: 6.00 Build 0)  -->
<!DOCTYPE svg PUBLIC "-//W3C//DTD SVG 1.1//EN" "http://www.w3.org/Graphics/SVG/1.1/DTD/svg11.dtd">
<svg version="1.1" id="Слой_1" xmlns="http://www.w3.org/2000/svg" xmlns:xlink="http://www.w3.org/1999/xlink" x="0px" y="0px"
	 viewBox="0 0 106.8 89.5" enable-background="new 0 0 106.8 89.5" xml:space="preserve">
<path fill="#FFFFFF" d="M26.7,39h2.9c21.1,0,20.2,24.8,0,24.8H15.8V25.7h26v7.9H26.7V39z M26.7,47.2v8.3h2.9c6.1,0,6.4-8.3,0-8.3
	H26.7z"/>
<polygon fill="#FF5B00" points="74.9,25.7 74.9,34.1 64.9,34.1 64.9,63.8 54,63.8 54,34.1 44.1,34.1 44.1,25.7 "/>
<path fill="#FFFFFF" d="M88.4,39h2.9c21.1,0,20.2,24.8,0,24.8H77.5V25.7h26v7.9H88.4V39z M88.4,47.2v8.3h2.9c6.1,0,6.4-8.3,0-8.3
	H88.4z"/>
<polygon fill="#FFFFFF" points="101.7,20.2 75.7,20.2 60.3,0 86.6,0 "/>
<polygon fill="#FF5B00" points="71.8,20.2 45.8,20.2 30.4,0 56.7,0 "/>
<polygon fill="#FFFFFF" points="41.4,20.2 15.4,20.2 0,0 26.3,0 "/>
<polygon fill="#FFFFFF" points="102,69.3 75.9,69.3 60.5,89.5 86.8,89.5 "/>
<polygon fill="#FF5B00" points="72.1,69.3 46,69.3 30.6,89.5 56.9,89.5 "/>
<polygon fill="#FFFFFF" points="41.7,69.3 15.7,69.3 0.2,89.5 26.6,89.5 "/>
</svg>
